<svg xmlns="http://www.w3.org/2000/svg" width="800" height="600" viewBox="0 0 800 600">
  <!-- Background with gradient -->
  <defs>
    <linearGradient id="grad1" x1="0%" y1="0%" x2="100%" y2="100%">
      <stop offset="0%" style="stop-color:#6366F1;stop-opacity:0.8" />
      <stop offset="100%" style="stop-color:#8B5CF6;stop-opacity:0.9" />
    </linearGradient>
  </defs>
  
  <!-- Main laptop shape -->
  <rect x="200" y="150" width="400" height="250" rx="10" ry="10" fill="#2D3748" />
  <rect x="210" y="160" width="380" height="220" rx="5" ry="5" fill="#1A202C" />
  <rect x="220" y="170" width="360" height="200" rx="2" ry="2" fill="#E2E8F0" />
  
  <!-- Screen content - simplified website layout -->
  <rect x="230" y="180" width="340" height="30" rx="2" ry="2" fill="#4A5568" />
  <circle cx="250" cy="195" r="5" fill="#FC8181" />
  <circle cx="270" cy="195" r="5" fill="#F6E05E" />
  <circle cx="290" cy="195" r="5" fill="#68D391" />
  <rect x="350" y="190" width="200" height="10" rx="2" ry="2" fill="#A0AEC0" />
  
  <!-- Website content -->
  <rect x="230" y="220" width="100" height="80" rx="2" ry="2" fill="#4299E1" />
  <rect x="340" y="220" width="220" height="20" rx="2" ry="2" fill="#2D3748" />
  <rect x="340" y="250" width="180" height="10" rx="2" ry="2" fill="#A0AEC0" />
  <rect x="340" y="270" width="200" height="10" rx="2" ry="2" fill="#A0AEC0" />
  <rect x="340" y="290" width="160" height="10" rx="2" ry="2" fill="#A0AEC0" />
  
  <!-- Bottom row of content -->
  <rect x="230" y="320" width="80" height="40" rx="2" ry="2" fill="#F687B3" />
  <rect x="320" y="320" width="80" height="40" rx="2" ry="2" fill="#68D391" />
  <rect x="410" y="320" width="80" height="40" rx="2" ry="2" fill="#F6AD55" />
  <rect x="500" y="320" width="60" height="40" rx="20" ry="20" fill="#4299E1" />
  
  <!-- Laptop base -->
  <path d="M180,400 L620,400 L650,450 L150,450 Z" fill="#2D3748" />
  <rect x="370" y="415" width="60" height="5" rx="2.5" ry="2.5" fill="#A0AEC0" />
  
  <!-- Decorative elements -->
  <circle cx="150" cy="150" r="30" fill="url(#grad1)" opacity="0.7" />
  <circle cx="650" cy="200" r="40" fill="url(#grad1)" opacity="0.5" />
  <circle cx="200" cy="450" r="25" fill="url(#grad1)" opacity="0.6" />
  <circle cx="600" cy="480" r="35" fill="url(#grad1)" opacity="0.4" />
  
  <!-- Code brackets decoration -->
  <path d="M100,250 L120,230 L100,210 L80,230 L100,250 Z" fill="none" stroke="#4299E1" stroke-width="3" />
  <path d="M700,250 L680,230 L700,210 L720,230 L700,250 Z" fill="none" stroke="#F687B3" stroke-width="3" />
  
  <!-- Abstract connection lines -->
  <line x1="120" y1="230" x2="180" y2="230" stroke="#4299E1" stroke-width="2" stroke-dasharray="5,5" />
  <line x1="680" y1="230" x2="620" y2="230" stroke="#F687B3" stroke-width="2" stroke-dasharray="5,5" />
</svg>