<svg xmlns="http://www.w3.org/2000/svg" width="1440" height="800" viewBox="0 0 1440 800" fill="none">
  <rect width="1440" height="800" fill="#F8FAFC"/>
  <path d="M0 0L1440 0L1440 800L0 800L0 0Z" fill="url(#paint0_linear_1_2)"/>
  <path d="M1440 0L0 0L0 800L1440 800L1440 0Z" fill="url(#paint1_radial_1_2)" fill-opacity="0.4"/>
  <g opacity="0.6">
    <path d="M1339.11 216.177C1349.89 216.177 1358.61 207.455 1358.61 196.677C1358.61 185.9 1349.89 177.177 1339.11 177.177C1328.34 177.177 1319.61 185.9 1319.61 196.677C1319.61 207.455 1328.34 216.177 1339.11 216.177Z" stroke="#2563EB" stroke-width="2"/>
    <path d="M1339.11 255.177C1349.89 255.177 1358.61 246.455 1358.61 235.677C1358.61 224.9 1349.89 216.177 1339.11 216.177C1328.34 216.177 1319.61 224.9 1319.61 235.677C1319.61 246.455 1328.34 255.177 1339.11 255.177Z" stroke="#2563EB" stroke-width="2"/>
    <path d="M1300.11 216.177C1310.89 216.177 1319.61 207.455 1319.61 196.677C1319.61 185.9 1310.89 177.177 1300.11 177.177C1289.34 177.177 1280.61 185.9 1280.61 196.677C1280.61 207.455 1289.34 216.177 1300.11 216.177Z" stroke="#2563EB" stroke-width="2"/>
    <path d="M1300.11 255.177C1310.89 255.177 1319.61 246.455 1319.61 235.677C1319.61 224.9 1310.89 216.177 1300.11 216.177C1289.34 216.177 1280.61 224.9 1280.61 235.677C1280.61 246.455 1289.34 255.177 1300.11 255.177Z" stroke="#2563EB" stroke-width="2"/>
  </g>
  <g opacity="0.6">
    <path d="M139.113 616.177C149.891 616.177 158.613 607.455 158.613 596.677C158.613 585.9 149.891 577.177 139.113 577.177C128.336 577.177 119.613 585.9 119.613 596.677C119.613 607.455 128.336 616.177 139.113 616.177Z" stroke="#2563EB" stroke-width="2"/>
    <path d="M139.113 655.177C149.891 655.177 158.613 646.455 158.613 635.677C158.613 624.9 149.891 616.177 139.113 616.177C128.336 616.177 119.613 624.9 119.613 635.677C119.613 646.455 128.336 655.177 139.113 655.177Z" stroke="#2563EB" stroke-width="2"/>
    <path d="M100.113 616.177C110.891 616.177 119.613 607.455 119.613 596.677C119.613 585.9 110.891 577.177 100.113 577.177C89.3359 577.177 80.6133 585.9 80.6133 596.677C80.6133 607.455 89.3359 616.177 100.113 616.177Z" stroke="#2563EB" stroke-width="2"/>
    <path d="M100.113 655.177C110.891 655.177 119.613 646.455 119.613 635.677C119.613 624.9 110.891 616.177 100.113 616.177C89.3359 616.177 80.6133 624.9 80.6133 635.677C80.6133 646.455 89.3359 655.177 100.113 655.177Z" stroke="#2563EB" stroke-width="2"/>
  </g>
  <path opacity="0.5" d="M1230.5 400C1230.5 455.228 1185.73 500 1130.5 500C1075.27 500 1030.5 455.228 1030.5 400C1030.5 344.772 1075.27 300 1130.5 300C1185.73 300 1230.5 344.772 1230.5 400Z" stroke="#2563EB" stroke-width="2"/>
  <path opacity="0.5" d="M410.5 200C410.5 255.228 365.728 300 310.5 300C255.272 300 210.5 255.228 210.5 200C210.5 144.772 255.272 100 310.5 100C365.728 100 410.5 144.772 410.5 200Z" stroke="#2563EB" stroke-width="2"/>
  <defs>
    <linearGradient id="paint0_linear_1_2" x1="720" y1="0" x2="720" y2="800" gradientUnits="userSpaceOnUse">
      <stop stop-color="#EFF6FF"/>
      <stop offset="1" stop-color="#F8FAFC"/>
    </linearGradient>
    <radialGradient id="paint1_radial_1_2" cx="0" cy="0" r="1" gradientUnits="userSpaceOnUse" gradientTransform="translate(720 400) rotate(90) scale(400 720)">
      <stop stop-color="#2563EB" stop-opacity="0.08"/>
      <stop offset="1" stop-color="#BFDBFE" stop-opacity="0"/>
    </radialGradient>
  </defs>
</svg>