<svg xmlns="http://www.w3.org/2000/svg" width="800" height="600" viewBox="0 0 800 600">
  <!-- Background with gradient -->
  <defs>
    <linearGradient id="grad1" x1="0%" y1="0%" x2="100%" y2="100%">
      <stop offset="0%" style="stop-color:#6366F1;stop-opacity:0.8" />
      <stop offset="100%" style="stop-color:#8B5CF6;stop-opacity:0.9" />
    </linearGradient>
  </defs>
  
  <!-- Main laptop shape (Website) -->
  <rect x="200" y="150" width="400" height="250" rx="10" ry="10" fill="#2D3748" />
  <rect x="210" y="160" width="380" height="220" rx="5" ry="5" fill="#1A202C" />
  <rect x="220" y="170" width="360" height="200" rx="2" ry="2" fill="#E2E8F0" />
  
  <!-- Screen content - simplified website layout -->
  <rect x="230" y="180" width="340" height="30" rx="2" ry="2" fill="#4A5568" />
  <circle cx="250" cy="195" r="5" fill="#FC8181" />
  <circle cx="270" cy="195" r="5" fill="#F6E05E" />
  <circle cx="290" cy="195" r="5" fill="#68D391" />
  <rect x="350" y="190" width="200" height="10" rx="2" ry="2" fill="#A0AEC0" />
  
  <!-- Website content -->
  <rect x="230" y="220" width="100" height="70" rx="2" ry="2" fill="#4299E1" />
  <rect x="340" y="220" width="100" height="70" rx="2" ry="2" fill="#F687B3" />
  <rect x="450" y="220" width="100" height="70" rx="2" ry="2" fill="#68D391" />
  
  <rect x="230" y="300" width="320" height="10" rx="2" ry="2" fill="#A0AEC0" />
  <rect x="230" y="320" width="320" height="10" rx="2" ry="2" fill="#A0AEC0" />
  <rect x="230" y="340" width="200" height="10" rx="2" ry="2" fill="#A0AEC0" />
  
  <!-- Mobile phone (App) -->
  <rect x="120" y="200" width="70" height="140" rx="10" ry="10" fill="#2D3748" />
  <rect x="125" y="210" width="60" height="110" rx="5" ry="5" fill="#E2E8F0" />
  
  <!-- App screen content -->
  <rect x="125" y="210" width="60" height="20" rx="2" ry="2" fill="#4A5568" />
  <rect x="130" y="235" width="50" height="10" rx="2" ry="2" fill="#A0AEC0" />
  <rect x="130" y="250" width="20" height="20" rx="2" ry="2" fill="#4299E1" />
  <rect x="155" y="250" width="20" height="20" rx="2" ry="2" fill="#F687B3" />
  <rect x="130" y="275" width="20" height="20" rx="2" ry="2" fill="#68D391" />
  <rect x="155" y="275" width="20" height="20" rx="2" ry="2" fill="#F6E05E" />
  <circle cx="155" cy="330" r="5" fill="#4A5568" />
  
  <!-- Game controller -->
  <rect x="610" y="230" width="100" height="60" rx="20" ry="20" fill="#2D3748" />
  <rect x="600" y="250" width="120" height="20" rx="10" ry="10" fill="#2D3748" />
  
  <!-- Controller buttons -->
  <circle cx="640" cy="250" r="10" fill="#4299E1" />
  <circle cx="680" cy="250" r="10" fill="#F687B3" />
  <circle cx="620" cy="260" r="5" fill="#F6E05E" />
  <circle cx="700" cy="260" r="5" fill="#68D391" />
  
  <!-- Connecting lines -->
  <path d="M170 270 C 180 270, 190 270, 200 270" stroke="#A0AEC0" stroke-width="2" fill="none" stroke-dasharray="5,5" />
  <path d="M600 270 C 590 270, 580 270, 570 270" stroke="#A0AEC0" stroke-width="2" fill="none" stroke-dasharray="5,5" />
  
  <!-- Decorative elements -->
  <circle cx="400" cy="100" r="30" fill="url(#grad1)" opacity="0.7" />
  <circle cx="150" cy="150" r="20" fill="url(#grad1)" opacity="0.5" />
  <circle cx="650" cy="150" r="25" fill="url(#grad1)" opacity="0.6" />
  <circle cx="200" cy="450" r="15" fill="url(#grad1)" opacity="0.4" />
  <circle cx="600" cy="450" r="20" fill="url(#grad1)" opacity="0.5" />
  <circle cx="400" cy="500" r="25" fill="url(#grad1)" opacity="0.6" />
</svg>