<svg xmlns="http://www.w3.org/2000/svg" width="600" height="400" viewBox="0 0 600 400" fill="none">
  <rect width="600" height="400" rx="8" fill="#F1F5F9"/>
  <rect x="50" y="50" width="500" height="300" rx="8" fill="#E2E8F0"/>
  <rect x="80" y="80" width="200" height="240" rx="4" fill="#2563EB" fill-opacity="0.1"/>
  <rect x="320" y="80" width="200" height="100" rx="4" fill="#2563EB" fill-opacity="0.1"/>
  <rect x="320" y="200" width="200" height="120" rx="4" fill="#2563EB" fill-opacity="0.1"/>
  <rect x="100" y="100" width="160" height="20" rx="4" fill="#2563EB"/>
  <rect x="100" y="140" width="160" height="10" rx="4" fill="#E2E8F0"/>
  <rect x="100" y="160" width="160" height="10" rx="4" fill="#E2E8F0"/>
  <rect x="100" y="180" width="160" height="10" rx="4" fill="#E2E8F0"/>
  <rect x="100" y="220" width="80" height="30" rx="4" fill="#2563EB"/>
  <rect x="340" y="100" width="160" height="20" rx="4" fill="#2563EB"/>
  <rect x="340" y="140" width="160" height="10" rx="4" fill="#E2E8F0"/>
  <rect x="340" y="220" width="160" height="20" rx="4" fill="#2563EB"/>
  <rect x="340" y="260" width="160" height="10" rx="4" fill="#E2E8F0"/>
  <rect x="340" y="280" width="160" height="10" rx="4" fill="#E2E8F0"/>
</svg>