<svg xmlns="http://www.w3.org/2000/svg" width="800" height="600" viewBox="0 0 800 600">
  <style>
    .dark-theme-fill { fill: #2a2a2a; }
    .dark-theme-stroke { stroke: #ffffff; }
    .light-theme-fill { fill: #f5f5f5; }
    .light-theme-stroke { stroke: #333333; }
    
    @media (prefers-color-scheme: dark) {
      .adaptive-fill { fill: #2a2a2a; }
      .adaptive-stroke { stroke: #ffffff; }
    }
    
    @media (prefers-color-scheme: light) {
      .adaptive-fill { fill: #f5f5f5; }
      .adaptive-stroke { stroke: #333333; }
    }
  </style>
  
  <!-- Background -->
  <rect width="800" height="600" class="adaptive-fill" />
  
  <!-- E-commerce Store Interface -->
  <rect x="100" y="100" width="600" height="400" rx="10" ry="10" fill="#ffffff" stroke="#333333" stroke-width="2" />
  
  <!-- Store Header -->
  <rect x="100" y="100" width="600" height="60" rx="10" ry="10" fill="#4a6cf7" />
  
  <!-- Store Logo -->
  <rect x="120" y="115" width="120" height="30" fill="#ffffff" />
  
  <!-- Navigation -->
  <rect x="350" y="125" width="40" height="10" fill="#ffffff" />
  <rect x="410" y="125" width="40" height="10" fill="#ffffff" />
  <rect x="470" y="125" width="40" height="10" fill="#ffffff" />
  
  <!-- Search Bar -->
  <rect x="530" y="115" width="150" height="30" rx="15" ry="15" fill="#ffffff" stroke="#cccccc" stroke-width="1" />
  
  <!-- Shopping Cart Icon -->
  <circle cx="660" cy="130" r="15" fill="#ffffff" opacity="0.8" />
  <path d="M650,130 L655,130 L658,120 L665,120 L668,130 L670,130 L670,132 L650,132 Z" fill="#4a6cf7" />
  <circle cx="655" cy="135" r="2" fill="#4a6cf7" />
  <circle cx="665" cy="135" r="2" fill="#4a6cf7" />
  
  <!-- Product Grid -->
  <rect x="120" y="180" width="170" height="150" rx="5" ry="5" fill="#f0f0f0" />
  <rect x="130" y="190" width="150" height="100" fill="#cccccc" />
  <rect x="130" y="300" width="100" height="10" fill="#333333" />
  <rect x="130" y="315" width="60" height="10" fill="#666666" />
  
  <rect x="310" y="180" width="170" height="150" rx="5" ry="5" fill="#f0f0f0" />
  <rect x="320" y="190" width="150" height="100" fill="#cccccc" />
  <rect x="320" y="300" width="100" height="10" fill="#333333" />
  <rect x="320" y="315" width="60" height="10" fill="#666666" />
  
  <rect x="500" y="180" width="170" height="150" rx="5" ry="5" fill="#f0f0f0" />
  <rect x="510" y="190" width="150" height="100" fill="#cccccc" />
  <rect x="510" y="300" width="100" height="10" fill="#333333" />
  <rect x="510" y="315" width="60" height="10" fill="#666666" />
  
  <rect x="120" y="350" width="170" height="150" rx="5" ry="5" fill="#f0f0f0" />
  <rect x="130" y="360" width="150" height="100" fill="#cccccc" />
  <rect x="130" y="470" width="100" height="10" fill="#333333" />
  <rect x="130" y="485" width="60" height="10" fill="#666666" />
  
  <rect x="310" y="350" width="170" height="150" rx="5" ry="5" fill="#f0f0f0" />
  <rect x="320" y="360" width="150" height="100" fill="#cccccc" />
  <rect x="320" y="470" width="100" height="10" fill="#333333" />
  <rect x="320" y="485" width="60" height="10" fill="#666666" />
  
  <rect x="500" y="350" width="170" height="150" rx="5" ry="5" fill="#f0f0f0" />
  <rect x="510" y="360" width="150" height="100" fill="#cccccc" />
  <rect x="510" y="470" width="100" height="10" fill="#333333" />
  <rect x="510" y="485" width="60" height="10" fill="#666666" />
  
  <!-- Shopping Cart Elements -->
  <circle cx="400" cy="550" r="20" fill="#4a6cf7" />
  <path d="M395,550 L405,550 M400,545 L400,555" stroke="#ffffff" stroke-width="2" />
  <text x="430" y="555" font-family="Arial" font-size="16" class="adaptive-stroke" fill="none" stroke-width="0.5">Add to Cart</text>
</svg>