<svg xmlns="http://www.w3.org/2000/svg" width="800" height="600" viewBox="0 0 800 600">
  <style>
    .dark-theme-fill { fill: #2a2a2a; }
    .dark-theme-stroke { stroke: #ffffff; }
    .light-theme-fill { fill: #f5f5f5; }
    .light-theme-stroke { stroke: #333333; }
    
    @media (prefers-color-scheme: dark) {
      .adaptive-fill { fill: #2a2a2a; }
      .adaptive-stroke { stroke: #ffffff; }
    }
    
    @media (prefers-color-scheme: light) {
      .adaptive-fill { fill: #f5f5f5; }
      .adaptive-stroke { stroke: #333333; }
    }
  </style>
  
  <!-- Background -->
  <rect width="800" height="600" class="adaptive-fill" />
  
  <!-- Maintenance Dashboard Interface -->
  <rect x="100" y="100" width="600" height="400" rx="10" ry="10" fill="#ffffff" stroke="#333333" stroke-width="2" />
  
  <!-- Dashboard Header -->
  <rect x="100" y="100" width="600" height="60" rx="10" ry="10" fill="#4a6cf7" />
  <text x="150" y="140" font-family="Arial" font-size="20" fill="#ffffff" font-weight="bold">WEBSITE MAINTENANCE</text>
  
  <!-- Dashboard Controls -->
  <circle cx="650" cy="130" r="15" fill="#ffffff" opacity="0.8" />
  <rect x="640" y="125" width="20" height="10" fill="#4a6cf7" />
  
  <!-- Dashboard Sidebar -->
  <rect x="100" y="160" width="150" height="340" fill="#f0f0f0" />
  
  <!-- Sidebar Menu Items -->
  <rect x="110" y="180" width="130" height="30" rx="5" ry="5" fill="#4a6cf7" />
  <rect x="120" y="190" width="80" height="10" fill="#ffffff" />
  
  <rect x="110" y="220" width="130" height="30" rx="5" ry="5" fill="#ffffff" />
  <rect x="120" y="230" width="80" height="10" fill="#666666" />
  
  <rect x="110" y="260" width="130" height="30" rx="5" ry="5" fill="#ffffff" />
  <rect x="120" y="270" width="80" height="10" fill="#666666" />
  
  <rect x="110" y="300" width="130" height="30" rx="5" ry="5" fill="#ffffff" />
  <rect x="120" y="310" width="80" height="10" fill="#666666" />
  
  <rect x="110" y="340" width="130" height="30" rx="5" ry="5" fill="#ffffff" />
  <rect x="120" y="350" width="80" height="10" fill="#666666" />
  
  <!-- Main Dashboard Content -->
  <rect x="270" y="180" width="410" height="100" rx="5" ry="5" fill="#f0f0f0" />
  
  <!-- Status Indicators -->
  <circle cx="300" cy="230" r="20" fill="#6bff6b" />
  <text x="300" y="235" font-family="Arial" font-size="16" text-anchor="middle" fill="#ffffff">✓</text>
  
  <rect x="330" y="210" width="150" height="15" fill="#333333" />
  <rect x="330" y="235" width="100" height="10" fill="#666666" />
  
  <circle cx="520" cy="230" r="20" fill="#ff6b6b" />
  <text x="520" y="235" font-family="Arial" font-size="16" text-anchor="middle" fill="#ffffff">!</text>
  
  <rect x="550" y="210" width="100" height="15" fill="#333333" />
  <rect x="550" y="235" width="80" height="10" fill="#666666" />
  
  <!-- Maintenance Charts -->
  <rect x="270" y="300" width="190" height="140" rx="5" ry="5" fill="#f0f0f0" />
  
  <!-- Line Chart -->
  <polyline points="290,390 320,360 350,380 380,340 410,350 440,320" fill="none" stroke="#4a6cf7" stroke-width="2" />
  <circle cx="290" cy="390" r="3" fill="#4a6cf7" />
  <circle cx="320" cy="360" r="3" fill="#4a6cf7" />
  <circle cx="350" cy="380" r="3" fill="#4a6cf7" />
  <circle cx="380" cy="340" r="3" fill="#4a6cf7" />
  <circle cx="410" cy="350" r="3" fill="#4a6cf7" />
  <circle cx="440" cy="320" r="3" fill="#4a6cf7" />
  
  <!-- Bar Chart -->
  <rect x="490" y="300" width="190" height="140" rx="5" ry="5" fill="#f0f0f0" />
  <rect x="510" y="370" width="20" height="50" fill="#4a6cf7" />
  <rect x="540" y="350" width="20" height="70" fill="#4a6cf7" />
  <rect x="570" y="330" width="20" height="90" fill="#4a6cf7" />
  <rect x="600" y="380" width="20" height="40" fill="#4a6cf7" />
  <rect x="630" y="340" width="20" height="80" fill="#4a6cf7" />
  
  <!-- Maintenance Tools -->
  <g transform="translate(400, 500)">
    <circle cx="0" cy="0" r="30" fill="#f0f0f0" stroke="#333333" stroke-width="2" />
    <path d="M-10,-10 L10,10 M-10,10 L10,-10" stroke="#4a6cf7" stroke-width="4" />
  </g>
  
  <g transform="translate(500, 500) rotate(45)">
    <rect x="-15" y="-15" width="30" height="30" fill="#f0f0f0" stroke="#333333" stroke-width="2" />
    <path d="M-8,0 L8,0 M0,-8 L0,8" stroke="#4a6cf7" stroke-width="4" />
  </g>
</svg>