<svg xmlns="http://www.w3.org/2000/svg" width="600" height="400" viewBox="0 0 600 400">
  <!-- Background -->
  <rect width="600" height="400" fill="#f8fafc" rx="20" ry="20"/>
  
  <!-- Central Gear -->
  <circle cx="300" cy="200" r="80" fill="#ffffff" stroke="#2563eb" stroke-width="3"/>
  
  <!-- Gear Teeth -->
  <path d="M300,120 L310,100 L290,100 Z" fill="#2563eb"/>
  <path d="M300,280 L310,300 L290,300 Z" fill="#2563eb"/>
  <path d="M220,200 L200,210 L200,190 Z" fill="#2563eb"/>
  <path d="M380,200 L400,210 L400,190 Z" fill="#2563eb"/>
  
  <path d="M240,140 L225,125 L215,135 Z" fill="#2563eb"/>
  <path d="M360,260 L375,275 L385,265 Z" fill="#2563eb"/>
  <path d="M240,260 L225,275 L215,265 Z" fill="#2563eb"/>
  <path d="M360,140 L375,125 L385,135 Z" fill="#2563eb"/>
  
  <!-- Inner Circle -->
  <circle cx="300" cy="200" r="30" fill="#2563eb" opacity="0.2" stroke="#2563eb" stroke-width="2"/>
  
  <!-- Connected Elements -->
  <!-- Code Block -->
  <rect x="120" y="150" width="80" height="100" rx="5" ry="5" fill="#ffffff" stroke="#2563eb" stroke-width="2"/>
  <line x1="200" y1="180" x2="220" y2="180" stroke="#2563eb" stroke-width="2" stroke-dasharray="5,5"/>
  
  <!-- Code Lines -->
  <rect x="130" y="160" width="60" height="5" rx="2" ry="2" fill="#2563eb" opacity="0.7"/>
  <rect x="130" y="170" width="40" height="5" rx="2" ry="2" fill="#2563eb" opacity="0.7"/>
  <rect x="130" y="180" width="50" height="5" rx="2" ry="2" fill="#2563eb" opacity="0.7"/>
  <rect x="130" y="190" width="45" height="5" rx="2" ry="2" fill="#2563eb" opacity="0.7"/>
  <rect x="130" y="200" width="55" height="5" rx="2" ry="2" fill="#2563eb" opacity="0.7"/>
  <rect x="130" y="210" width="35" height="5" rx="2" ry="2" fill="#2563eb" opacity="0.7"/>
  <rect x="130" y="220" width="50" height="5" rx="2" ry="2" fill="#2563eb" opacity="0.7"/>
  <rect x="130" y="230" width="60" height="5" rx="2" ry="2" fill="#2563eb" opacity="0.7"/>
  
  <!-- Database -->
  <path d="M400,150 C430,150 430,170 400,170 C370,170 370,150 400,150 Z" fill="#ffffff" stroke="#2563eb" stroke-width="2"/>
  <path d="M370,170 L370,220 C370,240 430,240 430,220 L430,170" fill="none" stroke="#2563eb" stroke-width="2"/>
  <path d="M370,170 C370,190 430,190 430,170" fill="none" stroke="#2563eb" stroke-width="2"/>
  <path d="M370,190 C370,210 430,210 430,190" fill="none" stroke="#2563eb" stroke-width="2"/>
  <line x1="380" y1="200" x2="350" y2="200" stroke="#2563eb" stroke-width="2" stroke-dasharray="5,5"/>
  
  <!-- Cloud -->
  <circle cx="300" cy="80" r="20" fill="#ffffff" stroke="#2563eb" stroke-width="2"/>
  <circle cx="280" cy="70" r="15" fill="#ffffff" stroke="#2563eb" stroke-width="2"/>
  <circle cx="320" cy="70" r="15" fill="#ffffff" stroke="#2563eb" stroke-width="2"/>
  <line x1="300" y1="100" x2="300" y2="120" stroke="#2563eb" stroke-width="2" stroke-dasharray="5,5"/>
  
  <!-- Mobile Device -->
  <rect x="300" cy="320" width="40" height="60" rx="5" ry="5" fill="#ffffff" stroke="#2563eb" stroke-width="2"/>
  <rect x="305" cy="330" width="30" height="40" rx="2" ry="2" fill="#e2e8f0"/>
  <circle cx="320" cy="375" r="3" fill="#2563eb"/>
  <line x1="300" y1="320" x2="300" y2="280" stroke="#2563eb" stroke-width="2" stroke-dasharray="5,5"/>
  
  <!-- Decorative Elements -->
  <circle cx="150" cy="300" r="15" fill="none" stroke="#2563eb" stroke-width="2" opacity="0.5"/>
  <circle cx="450" cy="100" r="15" fill="none" stroke="#2563eb" stroke-width="2" opacity="0.5"/>
  
  <path d="M100,250 Q130,220 100,190" fill="none" stroke="#2563eb" stroke-width="2" opacity="0.5"/>
  <path d="M500,250 Q470,220 500,190" fill="none" stroke="#2563eb" stroke-width="2" opacity="0.5"/>
  
  <!-- AI/ML Element -->
  <circle cx="200" cy="300" r="25" fill="#ffffff" stroke="#2563eb" stroke-width="2"/>
  <path d="M185,290 L215,290 M185,300 L215,300 M185,310 L215,310" fill="none" stroke="#2563eb" stroke-width="2"/>
  <path d="M190,285 L190,315 M200,285 L200,315 M210,285 L210,315" fill="none" stroke="#2563eb" stroke-width="2"/>
  <line x1="225" y1="300" x2="250" y2="300" stroke="#2563eb" stroke-width="2" stroke-dasharray="5,5"/>
  
  <!-- IoT Element -->
  <rect x="400" y="300" width="30" height="20" rx="2" ry="2" fill="#ffffff" stroke="#2563eb" stroke-width="2"/>
  <circle cx="410" cy="310" r="3" fill="#2563eb"/>
  <circle cx="420" cy="310" r="3" fill="#2563eb"/>
  <path d="M400,310 C390,310 390,290 400,290" fill="none" stroke="#2563eb" stroke-width="2"/>
  <path d="M430,310 C440,310 440,290 430,290" fill="none" stroke="#2563eb" stroke-width="2"/>
  <line x1="400" y1="290" x2="430" y2="290" stroke="#2563eb" stroke-width="2"/>
  <line x1="375" y1="300" x2="400" y2="300" stroke="#2563eb" stroke-width="2" stroke-dasharray="5,5"/>
</svg>