<svg xmlns="http://www.w3.org/2000/svg" width="300" height="300" viewBox="0 0 300 300">
  <!-- Background -->
  <rect width="300" height="300" fill="#f5f5f5" />
  
  <!-- Professional Woman Designer Silhouette -->
  <g transform="translate(75, 40)">
    <!-- Head -->
    <circle cx="75" cy="70" r="50" fill="#6c757d" />
    
    <!-- Hair -->
    <path d="M 35 70 Q 35 30 75 25 Q 115 30 115 70 L 115 90 Q 95 100 75 90 Q 55 100 35 90 Z" fill="#6d4534" />
    
    <!-- Face -->
    <ellipse cx="75" cy="75" rx="35" ry="40" fill="#ffe0bd" />
    
    <!-- Eyes -->
    <ellipse cx="60" cy="70" rx="5" ry="3" fill="#333" />
    <ellipse cx="90" cy="70" rx="5" ry="3" fill="#333" />
    
    <!-- Smile -->
    <path d="M 60 90 Q 75 100 90 90" fill="none" stroke="#333" stroke-width="2" />
    
    <!-- Neck -->
    <rect x="65" y="115" width="20" height="15" fill="#ffe0bd" />
    
    <!-- Shoulders/Upper Body -->
    <path d="M 30 140 L 65 130 L 85 130 L 120 140 L 120 200 L 30 200 Z" fill="#e74c3c" />
    
    <!-- Designer Elements -->
    <circle cx="100" cy="160" r="10" fill="#3498db" />
    <circle cx="50" cy="160" r="10" fill="#2ecc71" />
  </g>
  
  <!-- Professional Styling Elements -->
  <g transform="translate(75, 40)">
    <!-- Earrings -->
    <circle cx="35" cy="80" r="3" fill="#ffd700" />
    <circle cx="115" cy="80" r="3" fill="#ffd700" />
  </g>
  
  <!-- Light/Dark Mode Adaptability -->
  <style>
    @media (prefers-color-scheme: dark) {
      rect[width="300"][height="300"] { fill: #2a2a2a; }
    }
  </style>
</svg>