<svg xmlns="http://www.w3.org/2000/svg" width="300" height="300" viewBox="0 0 300 300">
  <!-- Background -->
  <rect width="300" height="300" fill="#f5f5f5" />
  
  <!-- Professional Man Silhouette -->
  <g transform="translate(75, 40)">
    <!-- Head -->
    <circle cx="75" cy="70" r="50" fill="#6c757d" />
    
    <!-- Hair -->
    <path d="M 35 50 Q 35 25 75 20 Q 115 25 115 50 L 115 60 L 35 60 Z" fill="#222" />
    
    <!-- Face -->
    <ellipse cx="75" cy="75" rx="40" ry="45" fill="#f1c27d" />
    
    <!-- Eyes -->
    <ellipse cx="60" cy="70" rx="5" ry="3" fill="#333" />
    <ellipse cx="90" cy="70" rx="5" ry="3" fill="#333" />
    
    <!-- Smile -->
    <path d="M 60 90 Q 75 100 90 90" fill="none" stroke="#333" stroke-width="2" />
    
    <!-- Neck -->
    <rect x="65" y="115" width="20" height="15" fill="#f1c27d" />
    
    <!-- Shoulders/Upper Body -->
    <path d="M 30 140 L 65 130 L 85 130 L 120 140 L 120 200 L 30 200 Z" fill="#2c3e50" />
    
    <!-- Collar -->
    <path d="M 65 130 L 75 145 L 85 130" fill="none" stroke="white" stroke-width="2" />
    
    <!-- Glasses -->
    <rect x="50" y="65" width="20" height="10" rx="3" ry="3" fill="none" stroke="#333" stroke-width="2" />
    <rect x="80" y="65" width="20" height="10" rx="3" ry="3" fill="none" stroke="#333" stroke-width="2" />
    <line x1="70" y1="70" x2="80" y2="70" stroke="#333" stroke-width="2" />
  </g>
  
  <!-- Light/Dark Mode Adaptability -->
  <style>
    @media (prefers-color-scheme: dark) {
      rect[width="300"][height="300"] { fill: #2a2a2a; }
    }
  </style>
</svg>