<svg xmlns="http://www.w3.org/2000/svg" width="300" height="300" viewBox="0 0 300 300">
  <!-- Background -->
  <rect width="300" height="300" fill="#f5f5f5" />
  
  <!-- Professional Woman Silhouette -->
  <g transform="translate(75, 40)">
    <!-- Head -->
    <circle cx="75" cy="70" r="50" fill="#6c757d" />
    
    <!-- Hair -->
    <path d="M 35 70 Q 35 30 75 25 Q 115 30 115 70 Q 115 40 75 35 Q 35 40 35 70" fill="#333" />
    
    <!-- Face -->
    <ellipse cx="75" cy="75" rx="40" ry="45" fill="#f8d5c2" />
    
    <!-- Eyes -->
    <ellipse cx="60" cy="70" rx="5" ry="3" fill="#333" />
    <ellipse cx="90" cy="70" rx="5" ry="3" fill="#333" />
    
    <!-- Smile -->
    <path d="M 60 90 Q 75 100 90 90" fill="none" stroke="#333" stroke-width="2" />
    
    <!-- Neck -->
    <rect x="65" y="115" width="20" height="15" fill="#f8d5c2" />
    
    <!-- Shoulders/Upper Body -->
    <path d="M 30 140 L 65 130 L 85 130 L 120 140 L 120 200 L 30 200 Z" fill="#4a6baf" />
    
    <!-- Collar -->
    <path d="M 65 130 L 75 145 L 85 130" fill="none" stroke="white" stroke-width="2" />
  </g>
  
  <!-- Professional Styling Elements -->
  <g transform="translate(75, 40)">
    <!-- Earrings -->
    <circle cx="35" cy="75" r="3" fill="#ffd700" />
    <circle cx="115" cy="75" r="3" fill="#ffd700" />
  </g>
  
  <!-- Light/Dark Mode Adaptability -->
  <style>
    @media (prefers-color-scheme: dark) {
      rect[width="300"][height="300"] { fill: #2a2a2a; }
    }
  </style>
</svg>